<?xml version="1.0" standalone="no"?>
<!DOCTYPE svg PUBLIC "-//W3C//DTD SVG 20010904//EN"
 "http://www.w3.org/TR/2001/REC-SVG-20010904/DTD/svg10.dtd">
<svg version="1.0" xmlns="http://www.w3.org/2000/svg"
 width="1467.000000pt" height="147.000000pt" viewBox="0 0 1467.000000 147.000000"
 preserveAspectRatio="xMidYMid meet">

<g transform="translate(0.000000,147.000000) scale(0.100000,-0.100000)"
fill="#000000" stroke="none">
<path d="M10815 1260 c-81 -4 22 -7 275 -8 244 -1 438 -7 489 -14 78 -11 87
-14 122 -50 20 -21 40 -38 44 -38 8 0 45 -32 83 -72 14 -16 31 -28 38 -28 7 0
21 -11 32 -25 11 -14 22 -25 26 -25 6 0 38 -27 94 -80 21 -19 57 -48 81 -65
24 -16 53 -42 64 -57 12 -16 26 -28 32 -28 7 0 34 -20 61 -45 26 -25 49 -45
50 -45 4 0 54 -43 85 -71 15 -15 35 -29 44 -32 8 -4 15 -11 15 -17 0 -5 18
-10 40 -10 22 0 40 -4 40 -10 0 -5 -7 -10 -16 -10 -9 0 9 -24 44 -60 33 -33
65 -60 71 -60 7 0 33 -22 60 -50 27 -27 53 -50 58 -50 5 0 33 -22 63 -50 30
-27 57 -50 62 -50 4 0 11 -6 15 -13 4 -6 24 -24 43 -38 59 -44 82 -68 77 -76
-3 -4 15 -6 39 -4 27 2 44 -1 44 -8 0 -8 -65 -11 -212 -12 -117 -1 -323 -5
-458 -8 -149 -4 243 -9 995 -13 682 -3 1243 -4 1247 -2 4 3 8 282 8 620 l0
614 -1862 -2 c-1025 -1 -1921 -5 -1993 -8z m1935 -719 c0 -6 -46 -10 -105 -10
-61 0 -105 4 -105 9 0 6 44 10 105 10 59 0 105 -4 105 -9z m120 -2 c0 -6 -22
-9 -55 -8 -30 1 -55 6 -55 11 0 4 25 8 55 8 32 0 55 -4 55 -11z m116 3 c-7
-12 -106 -12 -106 -1 0 5 25 9 56 9 30 0 53 -4 50 -8z m120 1 c-11 -11 -106
-12 -106 -2 0 5 26 9 57 9 31 0 53 -3 49 -7z m94 -1 c0 -5 -18 -9 -40 -9 -22
0 -40 4 -40 9 0 4 18 8 40 8 22 0 40 -4 40 -8z m30 4 c0 -3 -4 -8 -10 -11 -5
-3 -10 -1 -10 4 0 6 5 11 10 11 6 0 10 -2 10 -4z m90 -4 c0 -5 -18 -9 -40 -9
-22 0 -40 4 -40 9 0 4 18 8 40 8 22 0 40 -4 40 -8z m30 4 c0 -3 -4 -8 -10 -11
-5 -3 -10 -1 -10 4 0 6 5 11 10 11 6 0 10 -2 10 -4z m86 -3 c-11 -11 -76 -13
-76 -2 0 5 19 9 42 9 23 0 38 -3 34 -7z m94 -1 c0 -4 -18 -7 -40 -7 -22 0 -40
3 -40 7 0 5 18 8 40 8 22 0 40 -3 40 -8z m56 1 c-10 -10 -46 -11 -46 -1 0 4
12 8 27 8 14 0 23 -3 19 -7z m64 -1 c0 -10 -36 -9 -46 1 -4 4 5 7 19 7 15 0
27 -4 27 -8z m120 1 c0 -5 -25 -8 -55 -8 -30 0 -55 3 -55 8 0 4 25 7 55 7 30
0 55 -3 55 -7z m60 3 c0 -2 -11 -6 -25 -8 -14 -3 -25 -1 -25 3 0 5 11 9 25 9
14 0 25 -2 25 -4z m30 -6 c0 -5 -2 -10 -4 -10 -3 0 -8 5 -11 10 -3 6 -1 10 4
10 6 0 11 -4 11 -10z m83 3 c-7 -2 -21 -2 -30 0 -10 3 -4 5 12 5 17 0 24 -2
18 -5z m110 0 c-13 -2 -33 -2 -45 0 -13 2 -3 4 22 4 25 0 35 -2 23 -4z m47 -3
c0 -5 -2 -10 -4 -10 -3 0 -8 5 -11 10 -3 6 -1 10 4 10 6 0 11 -4 11 -10z m94
-6 c3 -9 5 -32 4 -52 -1 -36 -1 -36 -7 8 -6 43 -7 45 -46 51 l-40 6 41 2 c30
1 44 -4 48 -15z m6 -104 c0 -5 -2 -10 -4 -10 -3 0 -8 5 -11 10 -3 6 -1 10 4
10 6 0 11 -4 11 -10z m0 -45 c0 -14 -2 -25 -4 -25 -2 0 -6 11 -8 25 -3 14 -1
25 3 25 5 0 9 -11 9 -25z m0 -45 c0 -5 -2 -10 -4 -10 -3 0 -8 5 -11 10 -3 6
-1 10 4 10 6 0 11 -4 11 -10z m0 -30 c0 -5 -2 -10 -4 -10 -3 0 -8 5 -11 10 -3
6 -1 10 4 10 6 0 11 -4 11 -10z m0 -45 c0 -14 -4 -25 -9 -25 -4 0 -6 11 -3 25
2 14 6 25 8 25 2 0 4 -11 4 -25z m0 -45 c0 -5 -2 -10 -4 -10 -3 0 -8 5 -11 10
-3 6 -1 10 4 10 6 0 11 -4 11 -10z m0 -30 c0 -5 -2 -10 -4 -10 -3 0 -8 5 -11
10 -3 6 -1 10 4 10 6 0 11 -4 11 -10z m0 -45 c0 -14 -4 -25 -8 -25 -7 0 -8 31
-3 48 4 11 11 -3 11 -23z m0 -45 c0 -5 -2 -10 -4 -10 -3 0 -8 5 -11 10 -3 6
-1 10 4 10 6 0 11 -4 11 -10z m-990 -30 c0 -5 -25 -10 -55 -10 -30 0 -55 5
-55 10 0 6 25 10 55 10 30 0 55 -4 55 -10z m120 0 c0 -6 -23 -10 -55 -9 -30 1
-55 6 -55 11 0 4 25 8 55 8 31 0 55 -4 55 -10z m90 0 c0 -5 -18 -10 -40 -10
-22 0 -40 5 -40 10 0 6 18 10 40 10 22 0 40 -4 40 -10z m30 0 c0 -5 -4 -10
-10 -10 -5 0 -10 5 -10 10 0 6 5 10 10 10 6 0 10 -4 10 -10z m90 0 c0 -5 -18
-9 -40 -8 -22 1 -40 5 -40 10 0 4 18 8 40 8 22 0 40 -4 40 -10z m30 0 c0 -5
-4 -10 -10 -10 -5 0 -10 5 -10 10 0 6 5 10 10 10 6 0 10 -4 10 -10z m90 2 c0
-5 -18 -9 -40 -9 -22 0 -40 4 -40 9 0 4 18 8 40 8 22 0 40 -4 40 -8z m30 -2
c0 -5 -4 -10 -10 -10 -5 0 -10 5 -10 10 0 6 5 10 10 10 6 0 10 -4 10 -10z m30
0 c0 -5 -4 -10 -10 -10 -5 0 -10 5 -10 10 0 6 5 10 10 10 6 0 10 -4 10 -10z
m30 0 c0 -5 -4 -10 -10 -10 -5 0 -10 5 -10 10 0 6 5 10 10 10 6 0 10 -4 10
-10z m30 0 c0 -5 -4 -10 -10 -10 -5 0 -10 5 -10 10 0 6 5 10 10 10 6 0 10 -4
10 -10z m30 0 c0 -5 -4 -10 -10 -10 -5 0 -10 5 -10 10 0 6 5 10 10 10 6 0 10
-4 10 -10z m30 0 c0 -5 -4 -10 -10 -10 -5 0 -10 5 -10 10 0 6 5 10 10 10 6 0
10 -4 10 -10z m30 0 c0 -5 -4 -10 -10 -10 -5 0 -10 5 -10 10 0 6 5 10 10 10 6
0 10 -4 10 -10z m30 0 c0 -5 -4 -10 -10 -10 -5 0 -10 5 -10 10 0 6 5 10 10 10
6 0 10 -4 10 -10z m30 0 c0 -5 -4 -10 -10 -10 -5 0 -10 5 -10 10 0 6 5 10 10
10 6 0 10 -4 10 -10z m30 0 c0 -5 -4 -10 -10 -10 -5 0 -10 5 -10 10 0 6 5 10
10 10 6 0 10 -4 10 -10z m30 0 c0 -5 -4 -10 -10 -10 -5 0 -10 5 -10 10 0 6 5
10 10 10 6 0 10 -4 10 -10z m60 1 c0 -5 -11 -8 -25 -8 -14 0 -25 3 -25 8 0 5
11 9 25 9 14 0 25 -4 25 -9z m30 -1 c0 -5 -4 -10 -10 -10 -5 0 -10 5 -10 10 0
6 5 10 10 10 6 0 10 -4 10 -10z m30 0 c0 -5 -4 -10 -10 -10 -5 0 -10 5 -10 10
0 6 5 10 10 10 6 0 10 -4 10 -10z m60 1 c0 -5 -11 -8 -25 -8 -14 0 -25 3 -25
8 0 5 11 9 25 9 14 0 25 -4 25 -9z m30 -1 c0 -5 -4 -10 -10 -10 -5 0 -10 5
-10 10 0 6 5 10 10 10 6 0 10 -4 10 -10z"/>
<path d="M2830 1250 l-2805 -5 0 -23 0 -24 1625 1 c894 1 2970 4 4615 7 l2990
7 18 24 18 23 -1828 -2 c-1005 -2 -3090 -5 -4633 -8z"/>
<path d="M233 914 c-36 -16 -53 -41 -53 -79 0 -39 37 -69 105 -84 71 -16 85
-25 85 -57 0 -46 -78 -59 -137 -23 -25 15 -40 19 -54 13 -18 -9 -18 -10 -3
-33 48 -68 190 -67 238 1 42 60 4 120 -93 146 -73 20 -98 44 -67 68 26 19 61
18 96 -2 15 -10 35 -14 44 -11 48 19 -21 77 -89 76 -22 0 -54 -7 -72 -15z"/>
<path d="M552 914 c-83 -37 -98 -221 -24 -288 27 -24 103 -32 142 -16 95 40
121 195 46 278 -27 29 -40 35 -82 38 -29 2 -62 -3 -82 -12z m109 -51 c36 -21
53 -71 45 -128 -8 -50 -30 -74 -78 -81 -27 -5 -41 -1 -64 19 -27 23 -29 31
-29 92 0 61 3 69 28 91 33 28 58 30 98 7z"/>
<path d="M830 765 l0 -166 127 3 126 3 12 35 c11 34 14 35 65 38 77 5 94 -2
105 -40 8 -26 16 -34 38 -36 15 -2 27 -1 27 1 0 7 -44 125 -86 230 -37 94 -39
97 -70 97 -35 0 -41 -11 -100 -192 l-29 -88 -82 0 -83 0 0 140 0 140 -25 0
-25 0 0 -165z m364 54 c9 -17 18 -47 22 -66 l6 -34 -43 3 c-41 3 -44 5 -41 30
3 28 29 98 36 98 3 0 11 -14 20 -31z"/>
<path d="M1370 766 l0 -166 25 0 c23 0 24 4 27 63 l3 62 43 3 c42 3 43 3 63
-45 30 -73 34 -78 63 -81 32 -4 33 5 1 64 -30 57 -32 81 -4 89 45 15 51 91 10
137 -29 33 -31 33 -130 36 l-101 4 0 -166z m182 97 c22 -20 23 -41 1 -65 -12
-13 -31 -18 -75 -18 l-58 0 0 43 c0 24 3 47 7 50 14 14 106 7 125 -10z"/>
<path d="M1907 924 c-4 -4 -7 -79 -7 -166 l0 -159 103 3 c94 3 102 4 102 23 0
18 -8 20 -72 23 l-73 3 0 44 0 45 60 0 c57 0 60 1 60 25 0 24 -3 25 -60 25
l-60 0 0 45 0 45 76 0 c72 0 75 1 72 23 -3 21 -8 22 -98 25 -53 1 -99 0 -103
-4z"/>
<path d="M2170 765 l0 -166 28 3 27 3 5 110 5 110 58 -112 c56 -111 58 -113
92 -113 l35 0 0 166 0 165 -27 -3 -28 -3 -5 -110 -5 -110 -55 110 c-54 109
-55 110 -92 113 l-38 3 0 -166z"/>
<path d="M2505 917 c-3 -7 -4 -80 -3 -162 l3 -150 100 0 c93 0 100 1 100 20 0
18 -8 20 -72 23 l-73 3 0 44 0 45 60 0 c57 0 60 1 60 25 0 24 -3 25 -60 25
l-60 0 0 45 0 45 76 0 c72 0 75 1 72 23 -3 21 -8 22 -101 25 -74 2 -99 0 -102
-11z"/>
<path d="M2768 924 c-5 -4 -8 -79 -8 -166 l0 -158 30 0 30 0 0 66 0 65 42 -3
c34 -2 45 -8 54 -28 48 -99 48 -100 76 -100 16 0 28 2 28 5 0 3 -14 33 -30 67
l-30 62 26 21 c39 31 45 101 11 140 -23 28 -29 29 -123 33 -55 2 -102 1 -106
-4z m174 -61 c21 -18 24 -53 6 -71 -7 -7 -38 -12 -70 -12 l-58 0 0 50 0 50 52
0 c34 0 58 -6 70 -17z"/>
<path d="M3138 917 c-15 -7 -37 -25 -48 -40 -43 -54 -36 -211 11 -253 27 -24
103 -30 133 -11 21 14 26 14 36 2 7 -8 19 -15 26 -15 11 0 14 19 14 85 l0 85
-60 0 c-57 0 -60 -1 -60 -25 0 -21 5 -25 28 -25 37 0 43 -7 30 -36 -13 -28
-46 -39 -84 -30 -48 12 -71 123 -39 186 26 50 88 52 119 5 17 -26 32 -30 54
-16 12 7 11 14 -2 40 -28 54 -97 75 -158 48z"/>
<path d="M3327 913 c3 -10 23 -41 43 -68 59 -80 70 -108 70 -180 0 -63 1 -65
25 -65 24 0 25 2 25 70 0 68 2 73 55 157 30 48 55 91 55 95 0 4 -11 8 -24 8
-19 0 -33 -13 -61 -60 -20 -33 -43 -60 -50 -60 -7 0 -30 27 -50 60 -31 51 -41
60 -65 60 -24 0 -28 -3 -23 -17z"/>
<path d="M3730 765 l0 -165 25 0 25 0 0 127 c0 72 4 123 9 118 9 -10 22 -46
62 -172 17 -54 28 -73 41 -73 11 0 20 10 24 28 11 46 35 125 54 177 l19 50 0
-127 1 -128 25 0 25 0 0 165 0 165 -44 0 -45 0 -15 -52 c-8 -29 -21 -74 -28
-100 -6 -27 -15 -48 -18 -48 -4 0 -12 19 -19 43 -7 23 -22 68 -33 100 l-21 57
-43 0 -44 0 0 -165z"/>
<path d="M4182 910 c-65 -40 -90 -146 -53 -225 27 -59 53 -78 114 -83 42 -3
58 0 86 20 76 51 82 205 12 272 -41 39 -112 46 -159 16z m125 -54 c25 -22 28
-30 28 -91 0 -61 -3 -69 -28 -91 -35 -30 -78 -31 -112 -1 -50 43 -43 155 13
189 38 24 66 22 99 -6z"/>
<path d="M4460 765 l0 -165 25 0 25 0 0 109 c0 61 4 112 8 115 4 2 34 -47 65
-110 57 -114 58 -115 90 -112 l32 3 3 140 c3 168 0 185 -33 185 -24 0 -24 -1
-27 -112 l-3 -113 -21 35 c-11 19 -33 67 -48 105 -31 78 -37 85 -83 85 l-33 0
0 -165z"/>
<path d="M4747 924 c-4 -4 -7 -16 -7 -26 0 -15 8 -18 45 -18 l44 0 3 -137 3
-138 28 -3 27 -3 0 140 0 141 51 0 c47 0 50 2 47 23 -3 21 -7 22 -119 25 -63
1 -118 -1 -122 -4z"/>
<path d="M5027 924 c-4 -4 -7 -79 -7 -166 l0 -159 28 3 c26 3 27 5 30 71 l3
67 59 0 59 0 3 -67 c3 -66 4 -68 31 -71 l27 -3 0 166 0 166 -27 -3 c-27 -3
-28 -5 -31 -70 l-3 -68 -59 0 -59 0 -3 68 c-3 59 -6 67 -23 70 -12 2 -24 0
-28 -4z"/>
<path d="M5335 918 c-3 -8 -4 -81 -3 -163 l3 -150 103 -3 c103 -3 103 -3 100
20 -3 21 -9 23 -75 26 l-72 3 -3 137 c-3 134 -4 137 -26 140 -12 2 -24 -3 -27
-10z"/>
<path d="M5490 924 c0 -3 13 -24 29 -47 58 -85 76 -130 81 -202 5 -68 6 -70
33 -73 l27 -3 0 71 c0 68 2 73 55 157 30 48 55 91 55 96 0 4 -12 7 -27 5 -22
-2 -35 -16 -62 -60 -19 -32 -40 -58 -47 -58 -7 0 -27 24 -44 53 -18 28 -38 55
-44 59 -13 9 -56 11 -56 2z"/>
<path d="M5947 912 c-44 -27 -70 -92 -65 -160 6 -76 31 -128 70 -141 69 -24
136 -4 163 49 29 55 -10 70 -52 20 -65 -77 -151 6 -129 125 15 79 88 102 128
40 15 -23 31 -35 46 -35 26 0 28 19 7 60 -29 56 -112 77 -168 42z"/>
<path d="M6242 910 c-63 -39 -91 -152 -56 -225 25 -53 58 -77 111 -82 40 -4
55 0 91 24 52 34 67 79 58 168 -5 50 -12 65 -40 94 -44 44 -113 53 -164 21z
m125 -54 c25 -22 28 -30 28 -91 0 -61 -3 -69 -28 -91 -60 -51 -135 -15 -144
69 -13 110 71 176 144 113z"/>
<path d="M6548 914 c-52 -28 -64 -89 -25 -127 13 -13 47 -28 82 -36 68 -15 85
-25 85 -52 0 -46 -96 -66 -143 -29 -18 14 -31 18 -46 12 -20 -7 -20 -9 -5 -31
49 -69 200 -67 232 4 32 69 -6 123 -101 144 -36 8 -61 19 -67 31 -23 42 60 68
108 34 31 -21 66 -10 52 17 -25 45 -117 63 -172 33z"/>
<path d="M6767 924 c-4 -4 -7 -16 -7 -26 0 -15 8 -18 45 -18 l45 0 0 -141 0
-140 28 3 27 3 3 138 3 137 50 0 c47 0 50 2 47 23 -3 21 -7 22 -119 25 -63 1
-118 -1 -122 -4z"/>
<path d="M7190 912 c-69 -33 -99 -145 -61 -227 27 -59 53 -78 114 -82 59 -5
103 16 133 63 26 39 25 148 -1 193 -38 65 -116 87 -185 53z m117 -56 c26 -22
28 -30 28 -94 0 -62 -3 -73 -24 -91 -34 -29 -85 -28 -116 4 -21 20 -25 34 -25
88 0 65 9 86 45 105 32 18 62 14 92 -12z"/>
<path d="M7467 923 c-4 -3 -7 -78 -7 -165 l0 -159 28 3 c26 3 27 6 30 66 l3
62 55 0 c98 0 146 48 127 127 -12 53 -54 73 -154 73 -42 0 -79 -3 -82 -7z
m173 -63 c24 -24 24 -29 4 -58 -12 -18 -25 -22 -70 -22 l-54 0 0 50 0 50 50 0
c37 0 55 -5 70 -20z"/>
<path d="M7727 924 c-4 -4 -7 -16 -7 -26 0 -15 8 -18 45 -18 l45 0 0 -140 0
-140 30 0 30 0 0 140 0 140 51 0 c47 0 50 2 47 23 -3 21 -7 22 -119 25 -63 1
-118 -1 -122 -4z"/>
<path d="M8020 765 l0 -165 25 0 25 0 0 165 0 165 -25 0 -25 0 0 -165z"/>
<path d="M8203 911 c-46 -29 -64 -62 -70 -128 -9 -108 32 -170 119 -180 79 -9
141 41 154 122 10 67 -4 123 -40 163 -42 45 -112 55 -163 23z m131 -61 c17
-17 21 -33 21 -86 0 -63 -2 -67 -35 -95 -43 -36 -61 -36 -102 0 -31 28 -33 33
-33 96 0 61 2 69 29 92 24 20 36 24 65 19 19 -3 44 -15 55 -26z"/>
<path d="M8460 765 l0 -165 25 0 25 0 0 117 c0 138 2 138 75 -9 47 -95 53
-103 85 -109 19 -4 35 -7 35 -6 0 1 -2 76 -5 167 -5 162 -5 165 -27 168 -23 3
-23 2 -23 -107 0 -61 -4 -111 -9 -111 -4 0 -31 50 -59 110 -51 110 -52 110
-87 110 l-35 0 0 -165z"/>
<path d="M23 144 c-7 -3 -13 -14 -13 -25 0 -19 71 -19 4123 -21 l4122 -3 25
22 25 23 -2825 0 c-1554 0 -3414 2 -4135 5 -721 3 -1316 2 -1322 -1z"/>
</g>
</svg>
